<?xml version="1.0" encoding="utf-8"?>
<!-- Generator: Adobe Illustrator 23.0.3, SVG Export Plug-In . SVG Version: 6.00 Build 0)  -->
<svg version="1.1" id="Layer_1" xmlns="http://www.w3.org/2000/svg" xmlns:xlink="http://www.w3.org/1999/xlink" x="0px" y="0px"
	 viewBox="0 0 300 300" style="enable-background:new 0 0 300 300;" xml:space="preserve">
<style type="text/css">
	.st0{display:none;fill:#A4C3B2;}
	.st1{fill:#6B9080;}
	.st2{fill:#A4C3B2;}
</style>
<path class="st0" d="M177.61,144.21C171.99,159.83,157.05,171,139.5,171s-32.49-11.17-38.11-26.79C84.85,146.07,72,160.09,72,177.12
	v122.76C72,318.17,86.83,333,105.12,333h68.76c18.29,0,33.12-14.83,33.12-33.12V177.12C207,160.09,194.15,146.07,177.61,144.21z"/>
<path id="Body" class="st1" d="M173.88,144h-68.76C86.83,144,72,158.83,72,177.12v122.76C72,318.17,86.83,333,105.12,333h68.76
	c18.29,0,33.12-14.83,33.12-33.12V177.12C207,158.83,192.17,144,173.88,144z"/>
<path class="st2" d="M188.85,147.58C187.02,170.76,167.65,189,144,189c-24.66,0-44.68-19.84-44.99-44.43
	C83.64,147.44,72,160.91,72,177.12v122.76C72,318.17,86.83,333,105.12,333h68.76c18.29,0,33.12-14.83,33.12-33.12V177.12
	C207,164.21,199.62,153.04,188.85,147.58z"/>
<path class="st2" d="M139.5,171c17.55,0,32.49-11.17,38.11-26.79c-1.23-0.14-2.47-0.21-3.73-0.21h-12.33
	c-2.08,10.27-11.16,18-22.05,18s-19.96-7.73-22.05-18h-12.33c-1.26,0-2.51,0.08-3.73,0.21C107.01,159.83,121.95,171,139.5,171z"/>
<path id="HairFront" class="st2" d="M184.7,126h-9.4c-2.37,0-4.3-1.92-4.3-4.3V67.3c0-2.37,1.92-4.3,4.3-4.3h9.4
	c2.37,0,4.3,1.92,4.3,4.3v54.4C189,124.08,187.08,126,184.7,126z"/>
<path id="Head" class="st1" d="M170.84,63h-53.68c-5.06,0-9.16,4.1-9.16,9.16v62.68c0,5.06,4.1,9.16,9.16,9.16h53.68
	c5.06,0,9.16-4.1,9.16-9.16V72.16C180,67.1,175.9,63,170.84,63z"/>
<circle id="Left_Eye" class="st2" cx="139.5" cy="103.5" r="4.5"/>
<circle id="Right_Eye" class="st2" cx="166.5" cy="103.5" r="4.5"/>
<path id="HairTop" class="st0" d="M181.34,81h-65.69c-4.23,0-7.66-3.43-7.66-7.66V61.66c0-4.23,3.43-7.66,7.66-7.66h65.69
	c4.23,0,7.66,3.43,7.66,7.66v11.69C189,77.57,185.57,81,181.34,81z"/>
<path id="HairBack" class="st2" d="M119.95,126h-14.9c-3.34,0-6.05-2.71-6.05-6.05v-50.9c0-3.34,2.71-6.05,6.05-6.05h14.9
	c3.34,0,6.05,2.71,6.05,6.05v50.9C126,123.29,123.29,126,119.95,126z"/>
</svg>
